<mxfile host="app.diagrams.net" agent="Mozilla/5.0 (Windows NT 10.0; Win64; x64) AppleWebKit/537.36 (KHTML, like Gecko) Chrome/134.0.0.0 YaBrowser/25.4.0.0 Safari/537.36" version="27.1.4">
  <diagram name="Страница — 1" id="RW9R_4s5d9CbJGJCuE06">
    <mxGraphModel dx="1042" dy="619" grid="1" gridSize="10" guides="1" tooltips="1" connect="1" arrows="1" fold="1" page="1" pageScale="1" pageWidth="827" pageHeight="1169" math="0" shadow="0">
      <root>
        <mxCell id="0" />
        <mxCell id="1" parent="0" />
        <mxCell id="qBtYmBIxgHppvbXNlzrV-1" value="&lt;font style=&quot;font-size: 24px;&quot;&gt;Presenter&lt;/font&gt;" style="ellipse;whiteSpace=wrap;html=1;" vertex="1" parent="1">
          <mxGeometry x="324" y="100" width="180" height="120" as="geometry" />
        </mxCell>
        <mxCell id="qBtYmBIxgHppvbXNlzrV-3" value="&lt;span style=&quot;font-size: 24px;&quot;&gt;Model&lt;/span&gt;" style="ellipse;whiteSpace=wrap;html=1;" vertex="1" parent="1">
          <mxGeometry x="110" y="300" width="180" height="120" as="geometry" />
        </mxCell>
        <mxCell id="qBtYmBIxgHppvbXNlzrV-4" value="&lt;span style=&quot;font-size: 24px;&quot;&gt;View&lt;/span&gt;" style="ellipse;whiteSpace=wrap;html=1;" vertex="1" parent="1">
          <mxGeometry x="530" y="300" width="180" height="120" as="geometry" />
        </mxCell>
        <mxCell id="qBtYmBIxgHppvbXNlzrV-7" value="" style="endArrow=classic;html=1;rounded=0;exitX=0;exitY=0;exitDx=0;exitDy=0;" edge="1" parent="1" source="qBtYmBIxgHppvbXNlzrV-4" target="qBtYmBIxgHppvbXNlzrV-1">
          <mxGeometry width="50" height="50" relative="1" as="geometry">
            <mxPoint x="520" y="310" as="sourcePoint" />
            <mxPoint x="450" y="260" as="targetPoint" />
          </mxGeometry>
        </mxCell>
        <mxCell id="qBtYmBIxgHppvbXNlzrV-8" value="" style="endArrow=classic;html=1;rounded=0;exitX=0;exitY=1;exitDx=0;exitDy=0;entryX=0.778;entryY=0.083;entryDx=0;entryDy=0;entryPerimeter=0;" edge="1" parent="1" source="qBtYmBIxgHppvbXNlzrV-1" target="qBtYmBIxgHppvbXNlzrV-3">
          <mxGeometry width="50" height="50" relative="1" as="geometry">
            <mxPoint x="420" y="310" as="sourcePoint" />
            <mxPoint x="470" y="260" as="targetPoint" />
          </mxGeometry>
        </mxCell>
        <mxCell id="qBtYmBIxgHppvbXNlzrV-10" value="" style="edgeStyle=orthogonalEdgeStyle;rounded=0;orthogonalLoop=1;jettySize=auto;html=1;" edge="1" parent="1" source="qBtYmBIxgHppvbXNlzrV-9" target="qBtYmBIxgHppvbXNlzrV-4">
          <mxGeometry relative="1" as="geometry" />
        </mxCell>
        <mxCell id="qBtYmBIxgHppvbXNlzrV-9" value="&lt;span style=&quot;font-size: 24px;&quot;&gt;User&lt;/span&gt;" style="ellipse;whiteSpace=wrap;html=1;" vertex="1" parent="1">
          <mxGeometry x="530" y="520" width="180" height="120" as="geometry" />
        </mxCell>
        <mxCell id="qBtYmBIxgHppvbXNlzrV-12" value="" style="endArrow=classic;html=1;rounded=0;dashed=1;exitX=0.987;exitY=0.358;exitDx=0;exitDy=0;exitPerimeter=0;entryX=0.036;entryY=0.352;entryDx=0;entryDy=0;entryPerimeter=0;" edge="1" parent="1" source="qBtYmBIxgHppvbXNlzrV-3" target="qBtYmBIxgHppvbXNlzrV-4">
          <mxGeometry width="50" height="50" relative="1" as="geometry">
            <mxPoint x="389" y="360" as="sourcePoint" />
            <mxPoint x="439" y="310" as="targetPoint" />
          </mxGeometry>
        </mxCell>
        <mxCell id="qBtYmBIxgHppvbXNlzrV-14" value="Уведомляет, что состояние изменено" style="text;html=1;align=center;verticalAlign=middle;whiteSpace=wrap;rounded=0;" vertex="1" parent="1">
          <mxGeometry x="338.5" y="310" width="150" height="30" as="geometry" />
        </mxCell>
        <mxCell id="qBtYmBIxgHppvbXNlzrV-15" value="" style="endArrow=classic;html=1;rounded=0;dashed=1;entryX=0.981;entryY=0.692;entryDx=0;entryDy=0;entryPerimeter=0;exitX=0.033;exitY=0.681;exitDx=0;exitDy=0;exitPerimeter=0;" edge="1" parent="1" source="qBtYmBIxgHppvbXNlzrV-4" target="qBtYmBIxgHppvbXNlzrV-3">
          <mxGeometry width="50" height="50" relative="1" as="geometry">
            <mxPoint x="380" y="390" as="sourcePoint" />
            <mxPoint x="324" y="390" as="targetPoint" />
          </mxGeometry>
        </mxCell>
        <mxCell id="qBtYmBIxgHppvbXNlzrV-16" value="Получает данные" style="text;html=1;align=center;verticalAlign=middle;whiteSpace=wrap;rounded=0;" vertex="1" parent="1">
          <mxGeometry x="360" y="350" width="116" height="30" as="geometry" />
        </mxCell>
      </root>
    </mxGraphModel>
  </diagram>
</mxfile>
